<mxfile host="app.diagrams.net" agent="Mozilla/5.0 (Windows NT 10.0; Win64; x64) AppleWebKit/537.36 (KHTML, like Gecko) Chrome/136.0.0.0 Safari/537.36 Edg/136.0.0.0" version="27.1.3">
  <diagram id="prtHgNgQTEPvFCAcTncT" name="Page-1">
    <mxGraphModel dx="1594" dy="978" grid="1" gridSize="10" guides="1" tooltips="1" connect="1" arrows="1" fold="1" page="1" pageScale="1" pageWidth="827" pageHeight="1169" math="0" shadow="0">
      <root>
        <mxCell id="0" />
        <mxCell id="1" parent="0" />
        <mxCell id="dNxyNK7c78bLwvsdeMH5-19" value="" style="swimlane;html=1;childLayout=stackLayout;resizeParent=1;resizeParentMax=0;horizontal=0;startSize=20;horizontalStack=0;" parent="1" vertex="1">
          <mxGeometry x="240" y="310" width="1280" height="430" as="geometry">
            <mxRectangle x="120" y="120" width="40" height="50" as="alternateBounds" />
          </mxGeometry>
        </mxCell>
        <mxCell id="HvoWI6OGCxwj3gX3Fiqv-7" style="edgeStyle=orthogonalEdgeStyle;rounded=0;orthogonalLoop=1;jettySize=auto;html=1;" edge="1" parent="dNxyNK7c78bLwvsdeMH5-19" source="HvoWI6OGCxwj3gX3Fiqv-4" target="HvoWI6OGCxwj3gX3Fiqv-6">
          <mxGeometry relative="1" as="geometry" />
        </mxCell>
        <mxCell id="HvoWI6OGCxwj3gX3Fiqv-9" style="edgeStyle=orthogonalEdgeStyle;rounded=0;orthogonalLoop=1;jettySize=auto;html=1;entryX=0.5;entryY=1;entryDx=0;entryDy=0;" edge="1" parent="dNxyNK7c78bLwvsdeMH5-19" source="HvoWI6OGCxwj3gX3Fiqv-6" target="HvoWI6OGCxwj3gX3Fiqv-8">
          <mxGeometry relative="1" as="geometry" />
        </mxCell>
        <mxCell id="HvoWI6OGCxwj3gX3Fiqv-24" style="edgeStyle=orthogonalEdgeStyle;rounded=0;orthogonalLoop=1;jettySize=auto;html=1;entryX=0.5;entryY=0;entryDx=0;entryDy=0;" edge="1" parent="dNxyNK7c78bLwvsdeMH5-19" source="HvoWI6OGCxwj3gX3Fiqv-19" target="HvoWI6OGCxwj3gX3Fiqv-69">
          <mxGeometry relative="1" as="geometry">
            <mxPoint x="770" y="375" as="targetPoint" />
          </mxGeometry>
        </mxCell>
        <mxCell id="HvoWI6OGCxwj3gX3Fiqv-68" value="" style="endArrow=classic;html=1;rounded=0;entryX=0.5;entryY=1;entryDx=0;entryDy=0;exitX=0.5;exitY=0;exitDx=0;exitDy=0;" edge="1" parent="dNxyNK7c78bLwvsdeMH5-19" source="HvoWI6OGCxwj3gX3Fiqv-2" target="HvoWI6OGCxwj3gX3Fiqv-4">
          <mxGeometry width="50" height="50" relative="1" as="geometry">
            <mxPoint x="130" y="300" as="sourcePoint" />
            <mxPoint x="180" y="250" as="targetPoint" />
          </mxGeometry>
        </mxCell>
        <mxCell id="dNxyNK7c78bLwvsdeMH5-20" value="ИС" style="swimlane;html=1;startSize=20;horizontal=0;" parent="dNxyNK7c78bLwvsdeMH5-19" vertex="1">
          <mxGeometry x="20" width="1260" height="215" as="geometry" />
        </mxCell>
        <mxCell id="HvoWI6OGCxwj3gX3Fiqv-4" value="Предоставление интерфейса авторизации" style="rounded=1;whiteSpace=wrap;html=1;" vertex="1" parent="dNxyNK7c78bLwvsdeMH5-20">
          <mxGeometry x="110" y="77.5" width="110" height="55" as="geometry" />
        </mxCell>
        <mxCell id="HvoWI6OGCxwj3gX3Fiqv-73" style="edgeStyle=orthogonalEdgeStyle;rounded=0;orthogonalLoop=1;jettySize=auto;html=1;entryX=0;entryY=0.5;entryDx=0;entryDy=0;" edge="1" parent="dNxyNK7c78bLwvsdeMH5-20" source="HvoWI6OGCxwj3gX3Fiqv-8" target="HvoWI6OGCxwj3gX3Fiqv-72">
          <mxGeometry relative="1" as="geometry" />
        </mxCell>
        <mxCell id="HvoWI6OGCxwj3gX3Fiqv-8" value="Данные валидны?" style="rhombus;whiteSpace=wrap;html=1;" vertex="1" parent="dNxyNK7c78bLwvsdeMH5-20">
          <mxGeometry x="430" y="73.75" width="80" height="62.5" as="geometry" />
        </mxCell>
        <mxCell id="HvoWI6OGCxwj3gX3Fiqv-14" style="edgeStyle=orthogonalEdgeStyle;rounded=0;orthogonalLoop=1;jettySize=auto;html=1;" edge="1" parent="dNxyNK7c78bLwvsdeMH5-20" source="HvoWI6OGCxwj3gX3Fiqv-10" target="HvoWI6OGCxwj3gX3Fiqv-4">
          <mxGeometry relative="1" as="geometry">
            <Array as="points">
              <mxPoint x="335" y="50" />
              <mxPoint x="165" y="50" />
            </Array>
          </mxGeometry>
        </mxCell>
        <mxCell id="HvoWI6OGCxwj3gX3Fiqv-10" value="Сообщение об ошибке" style="rounded=1;whiteSpace=wrap;html=1;" vertex="1" parent="dNxyNK7c78bLwvsdeMH5-20">
          <mxGeometry x="290" y="80" width="90" height="50" as="geometry" />
        </mxCell>
        <mxCell id="HvoWI6OGCxwj3gX3Fiqv-12" style="edgeStyle=orthogonalEdgeStyle;rounded=0;orthogonalLoop=1;jettySize=auto;html=1;entryX=1;entryY=0.5;entryDx=0;entryDy=0;" edge="1" parent="dNxyNK7c78bLwvsdeMH5-20" source="HvoWI6OGCxwj3gX3Fiqv-8" target="HvoWI6OGCxwj3gX3Fiqv-10">
          <mxGeometry relative="1" as="geometry" />
        </mxCell>
        <mxCell id="HvoWI6OGCxwj3gX3Fiqv-13" value="Нет" style="text;html=1;align=center;verticalAlign=middle;resizable=0;points=[];autosize=1;strokeColor=none;fillColor=none;" vertex="1" parent="dNxyNK7c78bLwvsdeMH5-20">
          <mxGeometry x="390" y="77.5" width="40" height="30" as="geometry" />
        </mxCell>
        <mxCell id="HvoWI6OGCxwj3gX3Fiqv-20" style="edgeStyle=orthogonalEdgeStyle;rounded=0;orthogonalLoop=1;jettySize=auto;html=1;entryX=0;entryY=0.5;entryDx=0;entryDy=0;" edge="1" parent="dNxyNK7c78bLwvsdeMH5-20" source="HvoWI6OGCxwj3gX3Fiqv-15" target="HvoWI6OGCxwj3gX3Fiqv-19">
          <mxGeometry relative="1" as="geometry" />
        </mxCell>
        <mxCell id="HvoWI6OGCxwj3gX3Fiqv-15" value="Предоставление соответствующих прав" style="rounded=1;whiteSpace=wrap;html=1;" vertex="1" parent="dNxyNK7c78bLwvsdeMH5-20">
          <mxGeometry x="1000" y="80" width="100" height="50" as="geometry" />
        </mxCell>
        <mxCell id="HvoWI6OGCxwj3gX3Fiqv-18" value="Да" style="text;html=1;align=center;verticalAlign=middle;resizable=0;points=[];autosize=1;strokeColor=none;fillColor=none;" vertex="1" parent="dNxyNK7c78bLwvsdeMH5-20">
          <mxGeometry x="520" y="77.5" width="40" height="30" as="geometry" />
        </mxCell>
        <mxCell id="HvoWI6OGCxwj3gX3Fiqv-19" value="Страница авторизованного профиля" style="rounded=1;whiteSpace=wrap;html=1;" vertex="1" parent="dNxyNK7c78bLwvsdeMH5-20">
          <mxGeometry x="1150" y="80" width="100" height="50" as="geometry" />
        </mxCell>
        <mxCell id="HvoWI6OGCxwj3gX3Fiqv-75" style="edgeStyle=orthogonalEdgeStyle;rounded=0;orthogonalLoop=1;jettySize=auto;html=1;entryX=0;entryY=0.5;entryDx=0;entryDy=0;" edge="1" parent="dNxyNK7c78bLwvsdeMH5-20" source="HvoWI6OGCxwj3gX3Fiqv-72" target="HvoWI6OGCxwj3gX3Fiqv-74">
          <mxGeometry relative="1" as="geometry" />
        </mxCell>
        <mxCell id="HvoWI6OGCxwj3gX3Fiqv-72" value="Аутентификация" style="rounded=1;whiteSpace=wrap;html=1;" vertex="1" parent="dNxyNK7c78bLwvsdeMH5-20">
          <mxGeometry x="590" y="80" width="100" height="50" as="geometry" />
        </mxCell>
        <mxCell id="HvoWI6OGCxwj3gX3Fiqv-76" value="" style="edgeStyle=orthogonalEdgeStyle;rounded=0;orthogonalLoop=1;jettySize=auto;html=1;" edge="1" parent="dNxyNK7c78bLwvsdeMH5-20" source="HvoWI6OGCxwj3gX3Fiqv-77" target="HvoWI6OGCxwj3gX3Fiqv-15">
          <mxGeometry relative="1" as="geometry" />
        </mxCell>
        <mxCell id="HvoWI6OGCxwj3gX3Fiqv-80" style="edgeStyle=orthogonalEdgeStyle;rounded=0;orthogonalLoop=1;jettySize=auto;html=1;entryX=0.75;entryY=0;entryDx=0;entryDy=0;" edge="1" parent="dNxyNK7c78bLwvsdeMH5-20" source="HvoWI6OGCxwj3gX3Fiqv-74" target="HvoWI6OGCxwj3gX3Fiqv-10">
          <mxGeometry relative="1" as="geometry">
            <Array as="points">
              <mxPoint x="780" y="54" />
              <mxPoint x="358" y="54" />
            </Array>
          </mxGeometry>
        </mxCell>
        <mxCell id="HvoWI6OGCxwj3gX3Fiqv-74" value="Успешно?" style="rhombus;whiteSpace=wrap;html=1;" vertex="1" parent="dNxyNK7c78bLwvsdeMH5-20">
          <mxGeometry x="740" y="73.75" width="80" height="62.5" as="geometry" />
        </mxCell>
        <mxCell id="HvoWI6OGCxwj3gX3Fiqv-78" value="" style="edgeStyle=orthogonalEdgeStyle;rounded=0;orthogonalLoop=1;jettySize=auto;html=1;" edge="1" parent="dNxyNK7c78bLwvsdeMH5-20" source="HvoWI6OGCxwj3gX3Fiqv-74" target="HvoWI6OGCxwj3gX3Fiqv-77">
          <mxGeometry relative="1" as="geometry">
            <mxPoint x="1080" y="415" as="sourcePoint" />
            <mxPoint x="1230" y="415" as="targetPoint" />
          </mxGeometry>
        </mxCell>
        <mxCell id="HvoWI6OGCxwj3gX3Fiqv-77" value="Авторизация" style="rounded=1;whiteSpace=wrap;html=1;" vertex="1" parent="dNxyNK7c78bLwvsdeMH5-20">
          <mxGeometry x="860" y="80" width="100" height="50" as="geometry" />
        </mxCell>
        <mxCell id="HvoWI6OGCxwj3gX3Fiqv-79" value="Да" style="text;html=1;align=center;verticalAlign=middle;resizable=0;points=[];autosize=1;strokeColor=none;fillColor=none;" vertex="1" parent="dNxyNK7c78bLwvsdeMH5-20">
          <mxGeometry x="820" y="77.5" width="40" height="30" as="geometry" />
        </mxCell>
        <mxCell id="HvoWI6OGCxwj3gX3Fiqv-81" value="Нет" style="text;html=1;align=center;verticalAlign=middle;resizable=0;points=[];autosize=1;strokeColor=none;fillColor=none;" vertex="1" parent="dNxyNK7c78bLwvsdeMH5-20">
          <mxGeometry x="740" y="50" width="40" height="30" as="geometry" />
        </mxCell>
        <mxCell id="dNxyNK7c78bLwvsdeMH5-22" value="Кандидат" style="swimlane;html=1;startSize=20;horizontal=0;" parent="dNxyNK7c78bLwvsdeMH5-19" vertex="1">
          <mxGeometry x="20" y="215" width="1260" height="215" as="geometry" />
        </mxCell>
        <mxCell id="HvoWI6OGCxwj3gX3Fiqv-3" style="edgeStyle=orthogonalEdgeStyle;rounded=0;orthogonalLoop=1;jettySize=auto;html=1;" edge="1" parent="dNxyNK7c78bLwvsdeMH5-22" target="HvoWI6OGCxwj3gX3Fiqv-2">
          <mxGeometry relative="1" as="geometry">
            <mxPoint x="60" y="105" as="sourcePoint" />
          </mxGeometry>
        </mxCell>
        <mxCell id="HvoWI6OGCxwj3gX3Fiqv-2" value="Переход на страницу авторизации" style="rounded=1;whiteSpace=wrap;html=1;" vertex="1" parent="dNxyNK7c78bLwvsdeMH5-22">
          <mxGeometry x="120" y="80" width="90" height="50" as="geometry" />
        </mxCell>
        <mxCell id="HvoWI6OGCxwj3gX3Fiqv-6" value="Ввод логина и пароля" style="rounded=1;whiteSpace=wrap;html=1;" vertex="1" parent="dNxyNK7c78bLwvsdeMH5-22">
          <mxGeometry x="228" y="80" width="90" height="50" as="geometry" />
        </mxCell>
        <mxCell id="HvoWI6OGCxwj3gX3Fiqv-67" value="" style="ellipse;whiteSpace=wrap;html=1;" vertex="1" parent="dNxyNK7c78bLwvsdeMH5-22">
          <mxGeometry x="30" y="85" width="40" height="40" as="geometry" />
        </mxCell>
        <mxCell id="HvoWI6OGCxwj3gX3Fiqv-69" value="" style="ellipse;whiteSpace=wrap;html=1;" vertex="1" parent="dNxyNK7c78bLwvsdeMH5-22">
          <mxGeometry x="1180" y="90" width="40" height="40" as="geometry" />
        </mxCell>
      </root>
    </mxGraphModel>
  </diagram>
</mxfile>
